<svg xmlns="http://www.w3.org/2000/svg" xmlns:inkscape="http://www.inkscape.org/namespaces/inkscape" width="1280" height="720" viewBox="0 0 1280 720">
<title>Hero down — Echoes of the Rift wireframe</title>
<desc>Editable low-fidelity screen layout. All boxes, labels and controls are separate vector elements.</desc>
<rect width="1280" height="720" fill="#15141b"/>
<text x="32" y="38" class="heading">Hero down</text>
<text x="1245" y="36" text-anchor="end" class="tag">EXISTING FLOW · REDESIGN PROPOSAL</text>
<line x1="32" y1="54" x2="1248" y2="54" stroke="#777386" stroke-width="1"/>
<rect x="455" y="170" width="160" height="200" rx="12" fill="#302e3a" fill-opacity=".94" stroke="#777386" stroke-width="2"/><path d="M467 158 L603 358 M603 158 L467 358" stroke="#777386" stroke-width="1"/><text x="535.0" y="275.0" text-anchor="middle" class="small">DOWNED HERO</text><rect x="340" y="380" width="600" height="235" rx="12" fill="#24222e" fill-opacity=".94" stroke="#777386" stroke-width="2"/><text x="640.0" y="502.5" text-anchor="middle" class="paneltitle">ALLY RESCUE / REVIVE</text><text x="400" y="440" text-anchor="start" class="body">You are down</text><text x="400" y="495" text-anchor="start" class="body">An ally can revive you nearby</text><rect x="435" y="517" width="190" height="58" rx="12" fill="#24222e" fill-opacity=".94" stroke="#777386" stroke-width="2"/><text x="530.0" y="551.0" text-anchor="middle" class="button">Self revive</text><rect x="650" y="517" width="190" height="58" rx="12" fill="#5cd3d0" fill-opacity=".94" stroke="#5cd3d0" stroke-width="2"/><text x="745.0" y="551.0" text-anchor="middle" class="button">Wait for ally</text>
<line x1="32" y1="676" x2="1248" y2="676" stroke="#777386" stroke-width="1"/>
<text x="34" y="704" class="small">DESIGN QUESTION</text><text x="190" y="704" class="body">Should self-revive and teammate rescue have different affordances?</text>
<style>
  text { font-family: Arial, sans-serif; fill: #f2eff8; }
  .heading { font-size: 25px; font-weight: 700; } .tag { font-size: 12px; fill: #5cd3d0; font-weight: 700; letter-spacing: 1px; }
  .paneltitle { font-size: 15px; font-weight: 600; fill: #aaa6b8; letter-spacing: .6px; }
  .body { font-size: 17px; fill: #f2eff8; } .small { font-size: 12px; fill: #aaa6b8; }
  .button { font-size: 17px; font-weight: 700; fill: #15141b; }
</style>
</svg>