<svg xmlns="http://www.w3.org/2000/svg" xmlns:inkscape="http://www.inkscape.org/namespaces/inkscape" width="1280" height="720" viewBox="0 0 1280 720">
<title>Wayfarer rankings — Echoes of the Rift wireframe</title>
<desc>Editable low-fidelity screen layout. All boxes, labels and controls are separate vector elements.</desc>
<rect width="1280" height="720" fill="#15141b"/>
<text x="32" y="38" class="heading">Wayfarer rankings</text>
<text x="1245" y="36" text-anchor="end" class="tag">EXISTING FLOW · REDESIGN PROPOSAL</text>
<line x1="32" y1="54" x2="1248" y2="54" stroke="#777386" stroke-width="1"/>
<rect x="110" y="65" width="1060" height="585" rx="12" fill="#24222e" fill-opacity=".94" stroke="#777386" stroke-width="2"/><text x="640.0" y="362.5" text-anchor="middle" class="paneltitle">RANKINGS</text><text x="160" y="125" text-anchor="start" class="body">LEADERBOARD · SEASON / MODE FILTER</text><rect x="155" y="170" width="590" height="375" rx="12" fill="#302e3a" fill-opacity=".94" stroke="#777386" stroke-width="2"/><rect x="163.0" y="206.0" width="574.0" height="34.4" rx="7" fill="#15141b" stroke="#777386" stroke-width="1"/><rect x="163.0" y="248.4" width="574.0" height="34.4" rx="7" fill="#15141b" stroke="#777386" stroke-width="1"/><rect x="163.0" y="290.8" width="574.0" height="34.4" rx="7" fill="#15141b" stroke="#777386" stroke-width="1"/><rect x="163.0" y="333.1" width="574.0" height="34.4" rx="7" fill="#15141b" stroke="#777386" stroke-width="1"/><rect x="163.0" y="375.5" width="574.0" height="34.4" rx="7" fill="#15141b" stroke="#777386" stroke-width="1"/><rect x="163.0" y="417.9" width="574.0" height="34.4" rx="7" fill="#15141b" stroke="#777386" stroke-width="1"/><rect x="163.0" y="460.2" width="574.0" height="34.4" rx="7" fill="#15141b" stroke="#777386" stroke-width="1"/><rect x="163.0" y="502.6" width="574.0" height="34.4" rx="7" fill="#15141b" stroke="#777386" stroke-width="1"/><text x="450.0" y="190" text-anchor="middle" class="small">RANK · PLAYER · SCORE · VIEW</text><rect x="780" y="165" width="330" height="390" rx="12" fill="#24222e" fill-opacity=".94" stroke="#777386" stroke-width="2"/><text x="945.0" y="365.0" text-anchor="middle" class="paneltitle">SELECTED PLAYER</text><rect x="860" y="185" width="170" height="170" rx="12" fill="#302e3a" fill-opacity=".94" stroke="#777386" stroke-width="2"/><path d="M872 173 L1018 343 M1018 173 L872 343" stroke="#777386" stroke-width="1"/><text x="945.0" y="275.0" text-anchor="middle" class="small">HERO PREVIEW</text><text x="820" y="415" text-anchor="start" class="body">Name · build · score</text><rect x="885" y="570" width="150" height="50" rx="12" fill="#24222e" fill-opacity=".94" stroke="#777386" stroke-width="2"/><text x="960.0" y="600.0" text-anchor="middle" class="button">Close</text>
<line x1="32" y1="676" x2="1248" y2="676" stroke="#777386" stroke-width="1"/>
<text x="34" y="704" class="small">DESIGN QUESTION</text><text x="190" y="704" class="body">Which ranking should be the default: campaign, power, or season?</text>
<style>
  text { font-family: Arial, sans-serif; fill: #f2eff8; }
  .heading { font-size: 25px; font-weight: 700; } .tag { font-size: 12px; fill: #5cd3d0; font-weight: 700; letter-spacing: 1px; }
  .paneltitle { font-size: 15px; font-weight: 600; fill: #aaa6b8; letter-spacing: .6px; }
  .body { font-size: 17px; fill: #f2eff8; } .small { font-size: 12px; fill: #aaa6b8; }
  .button { font-size: 17px; font-weight: 700; fill: #15141b; }
</style>
</svg>